<svg id="Camada_1" data-name="Camada 1" xmlns="http://www.w3.org/2000/svg" xmlns:xlink="http://www.w3.org/1999/xlink" viewBox="0 0 512 512"><defs><style>.cls-1{fill:url(#Gradiente_sem_nome_15);}.cls-2,.cls-6{fill:none;stroke-miterlimit:10;stroke-width:10.17px;}.cls-2{stroke:#db1616;}.cls-3{fill:#fff;}.cls-4{fill:#e81a3d;}.cls-5{fill:#020202;}.cls-6{stroke:#020202;}</style><linearGradient id="Gradiente_sem_nome_15" x1="256.26" y1="489.23" x2="257.8" y2="95.98" gradientUnits="userSpaceOnUse"><stop offset="0" stop-color="#1a83af"/><stop offset="0.02" stop-color="#1887b3"/><stop offset="0.13" stop-color="#0d9cc8"/><stop offset="0.26" stop-color="#06abd7"/><stop offset="0.41" stop-color="#01b4df"/><stop offset="0.64" stop-color="#00b7e2"/></linearGradient></defs><title>Logo</title><path class="cls-1" d="M238.6,436.1m131.92-80.68M261.61,464.55m-5.15-3.23q2.54,1.6,5.15,3.23s190.28,108.9,191.48-26.33L428,153.4s0-26.33-23.93-23.94l-147.55-.15h0l-147.55.15C85,127.07,85,153.4,85,153.4L59.83,438.22c1.2,135.23,191.48,26.33,191.48,26.33Z"/><path class="cls-2" d="M180.52,258.26s18.27,11.62,42.41,0"/><path class="cls-2" d="M294.66,259.79s21.56,10.48,45,.06"/><path class="cls-3" d="M258.24,462.48c125.7-77.69,121-146.49,121-146.49a63,63,0,0,0-31.1-49.19,61.11,61.11,0,0,0-10.09-4.74,40.22,40.22,0,1,0-38.43-.05,66.67,66.67,0,0,0-21.48,13.11,25.57,25.57,0,0,0-17-6.4,25.94,25.94,0,0,0-17,6.4A65.4,65.4,0,0,0,221.6,261.6a33.75,33.75,0,1,0-36.2,0,61.62,61.62,0,0,0-11.18,5.14,63.05,63.05,0,0,0-31.1,49.2s-16.27,63.1,115,146.45Z"/><path class="cls-4" d="M239.24,424.47m120.5-73.69-99.48,99.67-4.63-2.91c114.8-71,110.55-133.79,110.55-133.79a57.62,57.62,0,0,0-28.41-44.94,55.68,55.68,0,0,0-9.21-4.32,36.74,36.74,0,1,0-35.11-.05,61,61,0,0,0-19.61,12,23.39,23.39,0,0,0-15.54-5.84,23.69,23.69,0,0,0-15.53,5.84,59.83,59.83,0,0,0-20.62-12.35,30.82,30.82,0,1,0-33.06,0,57.75,57.75,0,0,0-38.61,49.64s-14.87,57.63,105,133.76Z"/><path class="cls-3" d="M272.21,282.59a17.21,17.21,0,0,1,4.23,5.54,23.53,23.53,0,0,1,2.82,11.21,22.84,22.84,0,0,1-8.54,18c8.33,4.15,15.46,12.59,19.9,23.93a25.57,25.57,0,0,1-5.81,27.6,37.31,37.31,0,0,1-52.24,0,25.56,25.56,0,0,1-5.81-27.6c4.44-11.34,11.61-19.78,19.91-23.93a22.82,22.82,0,0,1-8.55-18,23.68,23.68,0,0,1,2.82-11.21,15.83,15.83,0,0,1,4.15-5.54S257.11,270.14,272.21,282.59Z"/><path class="cls-5" d="M329,175.34c-1.95-17.54-3.11-35.11-4.33-52.7L323.2,96.26c-.27-4.41-.42-8.8-.6-13.2,0-1.1,0-2.11,0-3.17s0-2.1-.09-3.07c-.1-2-.34-3.95-.62-5.9A61.52,61.52,0,0,0,319,59.5a67.14,67.14,0,0,0-4.67-10.71,64.93,64.93,0,0,0-113.71,0A67.62,67.62,0,0,0,196,59.49a62.52,62.52,0,0,0-2.83,11.42c-.27,2-.51,3.93-.61,5.91-.09,1-.1,2-.11,3.07l0,1.57-.06,1.65c-.17,4.4-.33,8.79-.59,13.19l-1.44,26.37c-1.2,17.57-2.35,35.13-4.28,52.67h-1l-.2-52.6,0-26.3V83.29c.05-2.19-.16-4.4-.07-6.61s.19-4.43.4-6.64a72.15,72.15,0,0,1,7.59-25.36,73.3,73.3,0,0,1,16.15-21,72.55,72.55,0,0,1,22.6-13.85,72.35,72.35,0,0,1,52.14,0,72.55,72.55,0,0,1,22.6,13.85,73.43,73.43,0,0,1,16.15,21A72.21,72.21,0,0,1,329.91,70c.21,2.21.38,4.42.4,6.64s-.13,4.41-.14,6.62v39.44l-.16,52.6Z"/><path class="cls-6" d="M238.6,436.1m131.92-80.68M261.61,464.55m0,0s190.28,108.9,191.48-26.33L428,153.4s0-26.33-23.93-23.94l-147.55-.15h0l-147.55.15C85,127.07,85,153.4,85,153.4L59.83,438.22c1.2,135.23,191.48,26.33,191.48,26.33,131-79,126.26-149.67,126.26-149.67a63.08,63.08,0,0,0-31.1-49.2A61.87,61.87,0,0,0,336.38,261,40.22,40.22,0,1,0,298,260.9,66.82,66.82,0,0,0,276.47,274a25.63,25.63,0,0,0-17-6.39,26,26,0,0,0-17,6.39,65.47,65.47,0,0,0-22.57-13.52,33.76,33.76,0,1,0-36.19,0,61.68,61.68,0,0,0-11.18,5.15,63,63,0,0,0-31.1,49.2S124.71,379.58,261.61,464.55ZM276.47,274a20.35,20.35,0,0,1,5.3,6.45,25.92,25.92,0,0,1-7.18,34.07c10.46,4.83,19.4,14.66,25,27.87a28.27,28.27,0,0,1-7.28,32.14,49.4,49.4,0,0,1-65.53,0,28.25,28.25,0,0,1-7.28-32.14c5.56-13.21,14.56-23,25-27.87a25.95,25.95,0,0,1-7.18-34.07,18.6,18.6,0,0,1,5.2-6.45"/></svg>