<svg id="Camada_1" data-name="Camada 1" xmlns="http://www.w3.org/2000/svg" viewBox="0 0 2831.99 580"><defs><style>.cls-1,.cls-4{fill:#fff;}.cls-2,.cls-8{fill:#ee3737;}.cls-2,.cls-3,.cls-4,.cls-5,.cls-6{fill-rule:evenodd;}.cls-3,.cls-7{fill:#009cdd;}.cls-5{fill:#3d4199;}.cls-6{fill:#7bd2f6;}</style></defs><title>logo com nome</title><rect class="cls-1" x="0.5" y="0.5" width="2831" height="579"/><path d="M2831,1V579H1V1H2831m1-1H0V580H2832V0Z"/><path class="cls-2" d="M32.52,460.49c64,57.21,157.67,93.3,262,93.3,193,0,349.52-123.55,349.52-275.89,0-95.37-61.34-179.45-154.57-229,69.32,50.49,112.88,123.43,112.88,204.55,0,152.34-153.64,275.89-343.11,275.89-86.89,0-166.23-26-226.69-68.84"/><path class="cls-3" d="M16.12,437.81c63,57.2,155.14,93.3,257.76,93.3,189.91,0,343.92-123.55,343.92-275.9,0-95.37-60.36-179.45-152.09-229,68.21,50.48,111.07,123.43,111.07,204.54,0,152.35-151.18,275.89-337.6,275.89-85.5,0-163.57-26-223.06-68.83"/><path class="cls-4" d="M469.31,408.39c25.8,0,48,20.06,48,46.26s-22.18,46.27-48,46.27-48-20.06-48-46.27,22.18-46.26,48-46.26"/><path class="cls-2" d="M469.31,415.24c22.71,0,41.13,17.65,41.13,39.41S492,494.07,469.31,494.07s-41.13-17.65-41.13-39.42,18.42-39.41,41.13-39.41"/><path class="cls-2" d="M202.49,411c22.71,0,41.13,17.65,41.13,39.42s-18.42,39.41-41.13,39.41-41.13-17.65-41.13-39.41S179.78,411,202.49,411"/><path class="cls-5" d="M377.46,260.68l32.63,65.89,32.63,65.9H312.21l1.78-3.6a12.68,12.68,0,0,0,5.33-.65c14.67-3.18,28.73-15.46,38.16-26.57a105.33,105.33,0,0,0,17-27.19c3.25-7.86,5.8-17.85,2.94-26.19a44.44,44.44,0,0,0-13.78-19.75ZM264.54,392.47l12.77-25.8c-1.6-1.68-3.11-3.36-4.52-5a105.88,105.88,0,0,1-17-27.19c-3.25-7.86-5.79-17.85-2.94-26.19C258,293,272.54,280,289.21,280c9.45,0,18.43,4.1,25.93,9.73l.4-.31,14.26-28.78H199.28l32.63,65.89ZM378.62,189.65a41,41,0,0,1,21.95,6.19c.41-.39.86-.81,1.4-1.39,4.08-13.4,23.13-17.58,36.43-4,8.41,8.59,9.37,18.82,9.59,32.88.14,8.39-.37,14.88,5.48,21.78a34,34,0,0,0,4,4c-6.19.12-14.21,1.45-20.09,0-10.2-2.53-15.92-4-16.43-14.45-.58-11.81,6.37-40.57-13-32.55a29.8,29.8,0,0,1,8,20.09c0,13.89-10,25.74-24.1,30.4V233.71c4.29-3.35,8.5-7.93,8.33-13.48-.16-4.84-3.49-8.24-7.5-10.45a16.09,16.09,0,0,0-13.21-.66v-7.83l-8,4c-10.1,5.11-15.61,4.46-25.83,1.38C352.06,196.54,364.42,189.65,378.62,189.65Zm7.8,64.32q-1.55.28-3.12.45a42.34,42.34,0,0,1-4.68.26c-20.65,0-37.39-14.56-37.39-32.52a28.55,28.55,0,0,1,1.38-8.78c.19-.58.39-1.15.61-1.72C355,215.29,362,216.28,374,210.21v10.63c2,.21,2.75.77,3.35-2.15,1-4.91,8.35-6.49,12.7-4.1,9.19,5,3.08,11.67-3.67,16.34Zm-86.25-44.41a29,29,0,0,1,2.7,12.22c0,18.27-17.12,33.08-38.22,33.08A41,41,0,0,1,236.34,244l-.55-.54,16.65-10.29c.87-.89.76-2.16-.86-2.34-11.67,1.28-15.84-6.88-9.34-14,3.73-4.09,7.12-1.73,12,.14,2.74,1,2.95-.61,4.77-2.72l4.81-5.62,6.4,2.51c2.31.9,4,.52,6.48.32Zm-35.52-20.87c13.69,0,25.7,6.24,32.45,15.61L276.28,206c-1.11.09-3,.46-4,0l-6.4-2.51-3.64-1.43-2.54,3c-1.6,1.87-3.21,3.74-4.81,5.62-.13.15-.26.31-.38.47-2.79-1.15-5.5-2.3-8.67-2a11.51,11.51,0,0,0-7.63,4c-3.67,4-5.76,9.57-3.68,14.89a12,12,0,0,0,5.64,6.32l-7.95,4.92a29.76,29.76,0,0,1-5.77-17.47C226.42,203.51,243.54,188.69,264.65,188.69Z"/><path class="cls-2" d="M247.72,392.12H166.09q-24.15,2-22.47-23.16V290.14l-13,.53c-20.9-.46-32.72-24.63-11.21-39.62l49.36-29.3q0-70.56,0-141.13H68A20.36,20.36,0,1,1,68,39.9H189.61A20.42,20.42,0,0,1,210,60.26c0,14.74-.44,29.63-.44,44.41h.78l72.26,0H298c12.89-2.31,30.3,3.71,25.74,19.79,23.81-14.77,47.76-29.31,71.38-44.4l18.1-11.56q16.08-10.8,28.32,3.26L454,96q34.08,66.64,68.1,133.31l10.83,21.2c4,7.82,6.47,13.1,5.87,22.24-.62,9.5-5.22,15.76-16.89,16.28-5.52.24-11.18-.25-16.75-.15v75.37c3.31,20.06-6.86,29.93-28.2,27.59H458l-19.56-41.18h25.49V267.75c-1.6-7.93,4.68-19.37,21.45-19.68-22.46-43.93-45.63-89.39-68.09-133.32-35.36,22.58-66.52,41-101.88,63.54-18,6.75-29.46-.76-31.57-17.09,0-7.7-1.27-7.67-1.27-15.37H210V231c1.15,17.63-17.52,26-25.17,28.75V350.2h42.12Z"/><path class="cls-2" d="M289.19,285.53c8.74,0,17.85,4.26,25.95,11.29,8.09-7,17.2-11.27,25.94-11.29,13.35,0,26.37,10.46,31.19,24.52,7,20.55-26.8,67.32-54.59,72.9a7.06,7.06,0,0,1-5.08,0C284.8,377.37,251,330.6,258,310.05c4.81-14.06,17.83-24.56,31.18-24.52"/><path class="cls-4" d="M315.65,300.37a12.25,12.25,0,1,1-12.24,12.25,12.25,12.25,0,0,1,12.24-12.25"/><path class="cls-4" d="M344.76,313.23a30.21,30.21,0,0,1-15.31,21.21A203.82,203.82,0,0,0,332.08,366c.35,2.44-1.14,4.44-3.3,4.44h-4.33a5.05,5.05,0,0,1-4.58-4.44L317.12,347h-3.31L311.06,366c-.35,2.44-2.41,4.44-4.57,4.44h-4.33c-2.17,0-3.65-2-3.3-4.44a200.07,200.07,0,0,0,2.51-31.23,30.16,30.16,0,0,1-15.95-21.54h11.23a19.18,19.18,0,0,0,36.88,0Z"/><path class="cls-6" d="M301.37,333.44h28.41v11.94h-.22a14.33,14.33,0,0,1-28,0h-.22V333.44Z"/><path class="cls-7" d="M1788.34,101.23c-6.62,0-12.26,2.7-16.82,8.1a21.72,21.72,0,0,0-5.15,14.68,22,22,0,0,0,6.87,16.62,21.22,21.22,0,0,0,15.1,6.06,20.39,20.39,0,0,0,16.23-7.39,22.78,22.78,0,0,0,5.75-15.08,22.62,22.62,0,0,0-22-23m.11-25.16q20.82,0,35.23,15.91,12.4,13.56,12.4,32.63a45.89,45.89,0,0,1-6,22.29,46.64,46.64,0,0,1-16.92,17.88,46.14,46.14,0,0,1-24.75,7,47.57,47.57,0,0,1-25.27-7.08A47.7,47.7,0,0,1,1740.4,124q0-20.45,15.17-35Q1768.94,76.28,1788.45,76.07Zm-108.13,26.39a19.52,19.52,0,0,0-15.32,7.08,20.93,20.93,0,0,0-5.32,14,21.65,21.65,0,0,0,6.69,16.23,19.66,19.66,0,0,0,14,5.64,20.16,20.16,0,0,0,14.9-6.27,20.71,20.71,0,0,0,6.17-15.07,21.42,21.42,0,0,0-6.77-15.81A19.89,19.89,0,0,0,1680.32,102.46ZM1727,28.92v88.29a87.62,87.62,0,0,1-1.54,18.44,42.89,42.89,0,0,1-5.75,13.53,45,45,0,0,1-16.72,15.7,46.1,46.1,0,0,1-22.39,5.75q-21.45,0-35.33-16.23a45.31,45.31,0,0,1-11.39-30.49A44.9,44.9,0,0,1,1649.51,89c8.59-7.61,18.23-11.39,29-11.39,6.83,0,14.44,2,22.78,6.13V28.92Zm-153.83,73.75a19.47,19.47,0,0,0-16.12,7.88,21.82,21.82,0,0,0,2,29.38,20.15,20.15,0,0,0,14.4,5.85,18.79,18.79,0,0,0,15.81-7.92,21.75,21.75,0,0,0,4.73-13.43,21.31,21.31,0,0,0-7.81-16.82A20.05,20.05,0,0,0,1573.21,102.67ZM1620,169.09h-25.77v-7.4q-12.19,8.52-24,8.52a39.75,39.75,0,0,1-20.65-6.06,46.56,46.56,0,0,1-23-40,46.59,46.59,0,0,1,46.62-46.51,45.62,45.62,0,0,1,28.25,9.53,43.65,43.65,0,0,1,14.2,17.42c2.9,6.66,4.38,15,4.38,24.89Zm-104.56,0H1508c-7.11,0-12.51-.39-16.16-1.19a43,43,0,0,1-11.88-4.77,44,44,0,0,1-16.3-16,45.33,45.33,0,0,1-6.17-23.2q0-17.67,11.5-30.28a43.55,43.55,0,0,1,24.32-14,85.75,85.75,0,0,1,14.48-.91h7.71v24.75h-6.55c-6.59,0-11.64,1-15.22,3.08a18.79,18.79,0,0,0-7.32,7.29,20.39,20.39,0,0,0,0,20.47,19.37,19.37,0,0,0,7.4,7.36c3.54,1.93,8.55,2.87,15,2.87h6.66Zm-82.79,0h-25.76v-46.2a117,117,0,0,1,.63-14.54,30.28,30.28,0,0,1,2.67-8.87q9.62-20.67,36.13-20.65c.88,0,2.25,0,4.1.11v23.69l-3.08.11c-5.68.14-9.53,1.26-11.6,3.29s-3.09,5.79-3.09,11.18ZM1328.6,115h37.25q-5.31-13.09-18.26-13.07a20.17,20.17,0,0,0-11.77,3.5A18.93,18.93,0,0,0,1328.6,115Zm62.84,24.85a47.14,47.14,0,0,1-10.27,16.62,44.39,44.39,0,0,1-32.88,13.66q-20.82,0-34.17-15.38a45.77,45.77,0,0,1-11.6-31q0-20.36,14.68-33.89,12.84-12,31-12a44.24,44.24,0,0,1,33.48,14.37q11.4,12.36,11.39,25.59a14.06,14.06,0,0,1-5.44,11.6q-5.46,4.32-14.72,4.31H1329.4c3.86,8.34,10,12.52,18.47,12.52q7.83,0,14.62-6.35Zm-102.8,29.27h-25.76V117.14c0-4.94-.63-8.55-1.86-10.79-2.31-4.31-6-6.49-11.11-6.49a12.27,12.27,0,0,0-10.87,6.07,12.54,12.54,0,0,0-2,4.17,49.86,49.86,0,0,0-.32,7.32v51.67H1211V117.32a54.89,54.89,0,0,0-.31-7.33,10.08,10.08,0,0,0-1.65-3.92,12,12,0,0,0-10.8-5.85,12.12,12.12,0,0,0-10.86,6.06,11,11,0,0,0-1.65,4,53.52,53.52,0,0,0-.31,7.22v51.56h-25.77V121.56c0-7.68.42-13.46,1.3-17.35a34.4,34.4,0,0,1,5-11.6,35.24,35.24,0,0,1,13-11.92,36.26,36.26,0,0,1,17.77-4.52c10.34,0,19.2,3.86,26.67,11.6a52.31,52.31,0,0,1,13.42-8.87,34.74,34.74,0,0,1,13.6-2.55,38.62,38.62,0,0,1,36.74,28.6c1,4.06,1.47,9.67,1.47,16.79Zm-157.34,0h-25.76v-46.2a117,117,0,0,1,.63-14.54,30.25,30.25,0,0,1,2.66-8.87q9.63-20.67,36.14-20.65c.88,0,2.24,0,4.1.11v23.69l-3.08.11c-5.68.14-9.54,1.26-11.61,3.29s-3.08,5.79-3.08,11.18ZM1027.2,115h37.26q-5.31-13.09-18.26-13.07a20.2,20.2,0,0,0-11.78,3.5A19,19,0,0,0,1027.2,115Zm62.85,24.85a47.14,47.14,0,0,1-10.27,16.62,44.42,44.42,0,0,1-32.88,13.66q-20.82,0-34.17-15.38a45.78,45.78,0,0,1-11.61-31q0-20.36,14.69-33.89,12.82-12,31-12a44.22,44.22,0,0,1,33.47,14.37q11.42,12.36,11.39,25.59a14,14,0,0,1-5.43,11.6q-5.46,4.32-14.72,4.31H1028q5.77,12.51,18.47,12.52,7.83,0,14.62-6.35ZM944.73,102.25A19.82,19.82,0,0,0,929.62,109a20.62,20.62,0,0,0-5.85,14.48,21.11,21.11,0,0,0,6.76,16.12,20.16,20.16,0,0,0,14.09,5.54,19.41,19.41,0,0,0,15.92-7.5,21.89,21.89,0,0,0-2.14-30A19.72,19.72,0,0,0,944.73,102.25ZM897.9,219V135.09c0-13.81,1.16-23.52,3.51-29.06a47.15,47.15,0,0,1,17.73-21.24,45.56,45.56,0,0,1,25.59-7.71,46.4,46.4,0,0,1,46.41,46.51A45.8,45.8,0,0,1,977,157.38q-13.15,13-30.43,13-10.56,0-22.89-6.55V219ZM880.76,78.73v45.7c0,7.51-.42,13.15-1.29,16.86a38.16,38.16,0,0,1-5.26,11.89,41.06,41.06,0,0,1-60.71,8.51,35.73,35.73,0,0,1-10.62-14.75q-3.11-8.37-3.12-22.12V78.73h25.76v45.7c0,6.56.46,11.15,1.34,13.74a13.14,13.14,0,0,0,5.25,6.49,14.45,14.45,0,0,0,8.31,2.56,14.09,14.09,0,0,0,8.17-2.56,13.56,13.56,0,0,0,5.19-6.7c.8-2.52,1.22-7.15,1.22-13.84V78.73ZM773.68,30.68V59.94c-10-4.66-19-7-27.09-7-6.45,0-11.43,1.68-15,5a14.75,14.75,0,0,0-5,11.08c0,4.17,1.3,7.36,3.89,9.53s7.5,4.21,14.68,6.07q13.89,3.57,19.35,6.1a31.19,31.19,0,0,1,10,7.46c7.25,7.78,10.86,17.46,10.86,29q0,21.24-15.39,33.76-13,10.56-34.1,10.58-14.77,0-35.72-6.76V135c14.66,6.17,26.75,9.26,36.35,9.26q9.32,0,14.48-4.52A15.08,15.08,0,0,0,756.34,128c0-5.47-2.46-9.46-7.4-12-2-1-7.05-2.53-15-4.49Q712.31,106,704.29,93.42a41.56,41.56,0,0,1-6.45-22.61,43.89,43.89,0,0,1,9.53-27.69,40.29,40.29,0,0,1,16-12.69c6.1-2.63,13.71-4,22.71-4A98.63,98.63,0,0,1,773.68,30.68Z"/><path class="cls-8" d="M1346.8,330v51.82c-15.28-8.15-30.17-12.26-44.53-12.26-15.75,0-23.66,4.27-23.66,12.73a10,10,0,0,0,4.42,8.3c3,2.17,8.61,4.5,16.92,6.9,11.09,3.34,19.31,6.29,24.67,8.77a57.94,57.94,0,0,1,14.66,9.85q19.54,18.51,19.55,48,0,31.53-24.13,50.19c-13.42,10.47-31.11,15.67-52.91,15.67a136.15,136.15,0,0,1-58.65-13V460.5c12.26,7,22.11,11.71,29.4,14.2a73.38,73.38,0,0,0,23.59,3.72c17,0,25.45-4.73,25.45-14.12,0-4.35-1.63-7.6-4.82-9.62s-10.47-4.5-22-7.37c-16.37-4.27-28.31-9.85-35.92-16.84-12.26-11.17-18.38-26-18.38-44.3q0-32.93,25.91-51.59c14.27-10.31,31.34-15.43,51.36-15.43q20.71,0,49.1,10.86m-188.67-90a31.24,31.24,0,0,1,22.73,9.23,30.26,30.26,0,0,1,9.31,22.35,32.58,32.58,0,0,1-32,32.27,30.54,30.54,0,0,1-22.5-9.46,31.27,31.27,0,0,1-9.31-22.81,30.15,30.15,0,0,1,9.23-22.27A31.77,31.77,0,0,1,1158.13,240Zm30.41,85v200h-57V325Zm-202,53c-14.75,0-26.61,5.82-35.69,17.46a46.86,46.86,0,0,0-10.48,29.79c0,14,5,25.67,15,35.22a44.62,44.62,0,0,0,31.88,12.95c14.51,0,26.23-5.81,35-17.53,7-9.23,10.48-19.08,10.48-29.71,0-14.82-5.74-27.31-17.3-37.24Q1003.4,378.5,986.52,378Zm103.65,147h-57V508.68q-27,18.84-53.22,18.85-23.38,0-45.69-13.42a103,103,0,0,1-50.9-88.6q0-43.41,31.35-73.86,30-29.08,71.84-29.09a100.93,100.93,0,0,1,62.53,21.1c14.5,10.94,25,23.74,31.42,38.56s9.7,33.12,9.7,55.08ZM761,341.64h7.29c13.65,0,23.74-1.24,30.26-3.64a29.92,29.92,0,0,0,14.12-11.72,32.62,32.62,0,0,0-.39-36.62,28.9,28.9,0,0,0-14.66-11.48c-5.59-1.94-15.44-2.95-29.56-2.95H761Zm0,183.41H697.84V280.43c0-14.35,1.16-25.29,3.41-32.81a39.54,39.54,0,0,1,12.49-19c5.9-5.28,13.27-9,22-11.25s20.33-3.26,34.61-3.26q30.14,0,49,5.35a80.25,80.25,0,0,1,32.5,17.61q30,27.46,30,69.13,0,43.88-32.74,72.46a80.91,80.91,0,0,1-33.67,18.23q-18.85,5-54.54,5.43Z"/><path class="cls-8" d="M1565.51,390.6c6.55-4,11.15-7.91,13.8-11.64a22.15,22.15,0,0,0,4.06-13.27c0-5.36-1.35-9.58-4.11-12.67s-6.55-4.6-11.37-4.6a14.49,14.49,0,0,0-11.05,4.44,16.13,16.13,0,0,0-4.16,11.42c0,4.66,1.89,10,5.68,16.19,4.33,6.93,6.71,10.34,7.15,10.13m22.2,96.26-32.22-45.21c-6.11,4.55-10.29,8.61-12.45,12.08a24,24,0,0,0-3.25,12.83q0,11.78,7.64,19c5,4.82,11.69,7.2,20,7.2A40,40,0,0,0,1587.71,486.86ZM1655,419.78c.11,4.55.16,7.69.16,9.37q0,22.17-3.63,34.86t-14.29,26.7l26.31,37.73h-46.61l-7.64-11.58q-11.45,7.47-20.79,10.28a75.87,75.87,0,0,1-22,2.87q-32.09,0-50.73-19.49-16.82-17.29-16.84-42.66,0-18.12,7.53-31.19c5-8.72,13.75-17.81,26.09-27.18q-10.8-16.25-14.94-26.69a57.32,57.32,0,0,1-4.22-21.71,48.09,48.09,0,0,1,9.52-29.34q14.87-20.47,44.24-20.47c16.46,0,29.78,4.93,39.85,14.73s15.16,22.74,15.16,38.71c0,11-2.55,20.57-7.69,28.64s-14.24,16.89-27.34,26.42L1612.29,456a62.08,62.08,0,0,0,4-19.49c.22-8.72.43-14.24.65-16.68Z"/><path class="cls-8" d="M2779.81,329.08V380.9c-15.28-8.15-30.18-12.26-44.53-12.26-15.75,0-23.66,4.27-23.66,12.73a9.94,9.94,0,0,0,4.42,8.3c2.95,2.17,8.61,4.5,16.91,6.9,11.1,3.34,19.32,6.29,24.67,8.77a57.81,57.81,0,0,1,14.67,9.85q19.55,18.51,19.55,48,0,31.53-24.13,50.19c-13.42,10.47-31.11,15.67-52.91,15.67a136.15,136.15,0,0,1-58.65-13V459.57c12.26,7,22.11,11.71,29.4,14.2a73.38,73.38,0,0,0,23.59,3.72c17,0,25.44-4.73,25.44-14.12,0-4.35-1.63-7.6-4.81-9.62s-10.47-4.5-22-7.37c-16.37-4.27-28.32-9.85-35.92-16.83-12.26-11.18-18.39-26-18.39-44.3q0-32.94,25.91-51.6c14.28-10.31,31.35-15.43,51.36-15.43q20.72,0,49.11,10.86m-253.45,44.84c-14.67,0-27.16,6-37.24,17.92-7.61,8.84-11.41,19.63-11.41,32.51,0,14.81,5,27.07,15.21,36.77a47,47,0,0,0,33.44,13.42q21.87,0,35.92-16.37c8.45-10,12.72-21.1,12.72-33.36q0-23.85-17.77-39.1A48.7,48.7,0,0,0,2526.36,373.92Zm.23-55.7q46.08,0,78,35.22,27.46,30,27.46,72.23,0,25.24-13.19,49.34a103.24,103.24,0,0,1-37.47,39.56A102,102,0,0,1,2526.59,530a105.28,105.28,0,0,1-55.94-15.67,105.58,105.58,0,0,1-50.43-90q0-45.27,33.6-77.51Q2483.37,318.69,2526.59,318.22ZM2389.5,524.12h-57V413.41c0-10.4-1.4-18.54-4.11-24.29a29.29,29.29,0,0,0-11.48-12.56,31,31,0,0,0-16.76-4.89,32.26,32.26,0,0,0-17.46,5.12,28.36,28.36,0,0,0-11.63,13c-2.41,5.43-3.65,13-3.65,22.73V524.12h-57V213.87h57v116.6c14.27-7.83,28.16-11.79,41.82-11.79a78.64,78.64,0,0,1,50,17.3c11.25,8.61,19.08,18.7,23.58,30.18s6.67,27.31,6.67,47.25Zm-222.58,0h-57V213.87h57Zm-130.87-285a31.24,31.24,0,0,1,22.73,9.23,30.26,30.26,0,0,1,9.31,22.35,32.6,32.6,0,0,1-32,32.27,30.54,30.54,0,0,1-22.5-9.46,31.27,31.27,0,0,1-9.31-22.81,30.15,30.15,0,0,1,9.23-22.27A31.75,31.75,0,0,1,2036.05,239.08Zm30.41,85v200h-57v-200ZM1980,213.87v60.67h-92.08V333h83.71v58.88h-83.71V524.12h-63.15V279.74q0-36.08,14.43-51t49.41-14.89Z"/></svg>